<?xml version="1.0" encoding="utf-8"?>
<!-- Generator: Adobe Illustrator 25.4.1, SVG Export Plug-In . SVG Version: 6.00 Build 0)  -->
<svg version="1.1" id="Ebene_1" xmlns="http://www.w3.org/2000/svg" x="0px" y="0px"
     viewBox="0 0 377 70.3" style="enable-background:new 0 0 377 70.3;" xml:space="preserve">
<style type="text/css">
	.st0{fill:#FD6B00;}
	.st1{fill:#FFFFFF;}
</style>
<g id="Ebene_2_00000143616808333585483900000014006004733888309154_">
	<g id="Ebene_1-2">
		<path class="st0" d="M135,70.3h139.1c5.9,0,11.4-5.5,11.8-6c3.2-3.8,17.6-23.5,17.6-23.5c3.1-4.1,3.1-7.8,0-11.8L285.8,5.7
			c-2.7-3.7-7.1-5.9-11.8-5.7H135c-5.7,0-11.6,5.9-11.6,11.6v47C123.4,64.3,129.3,70.3,135,70.3z"/>
		<path class="st1" d="M291.2,35c0,3.5-2.8,6.3-6.3,6.3c-3.5,0-6.3-2.8-6.3-6.3s2.8-6.3,6.3-6.3l0,0C288.4,28.7,291.2,31.5,291.2,35
			z"/>
		<path class="st1" d="M154.4,28.3c-0.1-2.6-1.3-3.9-4.1-3.9c-2.1,0-3.3,1.1-3.3,2.7c0,2.9,4.4,3.2,8.9,4.4
			c4.4,1.2,8.9,3.6,8.9,10.6c0,6.5-5.8,11.4-13.9,11.4c-7.5,0-13.5-3.7-14.3-11.9h9.3c0.1,2.6,2.3,4.4,5.3,4.4s3.8-1.8,3.8-3.5
			c0-3-4.4-3.3-8.9-4.6s-8.9-3.7-8.9-10.6c0-5.8,4.6-10.1,13.4-10.1c8.6,0,12.6,4.3,13.1,11L154.4,28.3z"/>
		<path class="st1" d="M169.6,7.5h9.3v12.7c0.7-1.4,2.3-2.9,7-2.9c3.6,0,6.2,1,7.8,2.9s2.5,4.3,2.5,7.3v25.4h-9.3V29.9
			c0.1-1.1-0.2-2.1-0.8-3.1c-0.7-0.9-1.8-1.5-3-1.4c-1.1-0.1-2.1,0.3-3,0.9c-0.8,0.7-1.2,1.8-1.2,2.9v23.5h-9.3L169.6,7.5z"/>
		<path class="st1" d="M201.2,35.3c0-10,4.8-18.1,15.1-18.1s15.1,8.1,15.1,18.1s-4.8,18.1-15.1,18.1S201.2,45.4,201.2,35.3
			L201.2,35.3z M211.1,35.5c0,8.1,2.1,10.3,5.5,10.3c3.1,0,5.2-2.2,5.2-10.4S219.6,25,216.3,25C213.1,25,211.1,27.2,211.1,35.5
			L211.1,35.5z"/>
		<path class="st1" d="M236,18h8.4v3.3c1.2-2.2,3.5-4,7.6-4c7.1,0,12.4,5.6,12.4,18.1c0,11.8-4.4,18.1-12.4,18.1
			c-2.7,0.1-5.2-1.1-6.8-3.3v13.6H236V18z M255.2,35.3c0-7.6-1.8-9.9-5-9.9c-1.3-0.1-2.6,0.5-3.4,1.5c-1.2,1.3-1.4,2.9-1.4,8.4
			s0.3,7.1,1.4,8.4c0.8,1,2.1,1.6,3.4,1.5C253.4,45.3,255.1,43.1,255.2,35.3L255.2,35.3z"/>
		<path d="M0,7.5h9.3v13.8c0.8-2.2,2.9-4,6.8-4c8,0,12.4,6.4,12.4,18.1c0,12.5-5.3,18.1-12.4,18.1c-3.7,0-6.1-1.3-7.6-4.2v3.4H0V7.5
			z M19.2,35.3c0-6.7-1.4-9.9-4.9-9.9c-5,0-5,4.7-5,9.9s0,9.9,5,9.9C17.8,45.3,19.2,42.1,19.2,35.3L19.2,35.3z"/>
		<path d="M59.1,52.8h-8.4v-3.7c-1.2,2.8-3.2,4.4-8,4.4c-6.2,0-10.2-3.1-10.2-10.1V18h9.3v22.7c0,2.4,0.6,4.6,3.9,4.6
			c2.4,0,4.2-1.1,4.2-4V18h9.3L59.1,52.8z M43.4,13.6h-8.7V6.7h8.7V13.6z M57,13.6h-8.8V6.7H57V13.6z"/>
		<path d="M65.2,18h8.4v4.5c1.4-4.4,4.8-5.3,10-5.3v10.1c-1.2-0.7-2.7-1.1-4.1-1c-3.4,0-5,2.6-5,6.1v20.3h-9.3V18z"/>
		<path d="M85.7,35.3c0-10,4.8-18.1,15.2-18.1S116,25.4,116,35.4s-4.8,18.1-15.2,18.1S85.7,45.4,85.7,35.3L85.7,35.3z M95.5,35.5
			c0,8.1,2.1,10.3,5.5,10.3c3.1,0,5.2-2.2,5.2-10.4S104.1,25,100.7,25C97.6,25,95.5,27.2,95.5,35.5L95.5,35.5z"/>
		<path d="M308.9,44.7c6.2-5.5,10.5-9.7,13.6-12.4c6-5.4,6.8-7.4,6.8-10.1c0.2-2.7-1.9-5-4.6-5.2c-0.1,0-0.2,0-0.4,0
			c-2.4,0-5.3,1-5.3,6.1h-10.6c0-5.3,1.7-9.2,4.6-11.7s6.9-3.7,11.4-3.7c9.2,0,15.8,6,15.8,14.7c0.1,3.6-1.1,7.2-3.5,10
			c-2.8,3.2-7.3,7-13.8,12.8h17.5v8.6h-31.3V44.7z"/>
		<path d="M362.2,44.7h-18.1v-8.2l17.9-28.1H372v28.1h5v8.2h-5v9.1h-9.8L362.2,44.7z M362.2,36.5V21.6l-8.9,14.9H362.2z"/>
	</g>
</g>
</svg>
