<?xml version="1.0" encoding="utf-8"?>
<!-- Generator: Adobe Illustrator 19.2.1, SVG Export Plug-In . SVG Version: 6.00 Build 0)  -->
<svg version="1.1" id="layer" xmlns="http://www.w3.org/2000/svg" x="0px" y="0px"
     viewBox="0 0 652 652" style="enable-background:new 0 0 652 652;" xml:space="preserve">
<style type="text/css">
	.st0{fill:#F45334;}
	.st1{fill:#FFFFFF;}
	.st2{fill:#354044;}
</style>
<path class="st0" d="M621.8,335.8c0,51.8-41.9,93.5-93.5,93.5s-93.5-41.9-93.5-93.5s41.9-93.5,93.5-93.5S621.8,284,621.8,335.8z"/>
<path class="st1" d="M538.7,375.7c-2.8-1.2-6.1-1.8-9.1-2c-4.9-0.2-9.4,0.3-14.2,1.3c-4.8,1-9.6,2-14.3,2.8
	c-4.6,0.8-9.2,2.3-13.8,2.6c-8.1,0.7-6.1-0.2-1.5-8.9c4.6-8.6,10.7-19.4,16.3-30c7.4-13.8,12.5-28.7,5.1-44.2
	c-10.1-21.4-40.1-5.9-50.3,7.1c-4,4.9,11,6.8,14.5,3.5c7.4-9.9,20.3-16.6,21.9-1.3c0.7,6.3-1.3,13-3.8,18.8
	c-6.3,14.5-14.8,27-22.7,40.2c-5.3,8.6-8.4,18.6,2.6,22.3c3.5,1.2,7.1,1.8,10.7,1.6c4.3-0.2,8.4-1.2,12.5-2
	c6.3-1.3,12.5-2.5,18.8-3.6c3.3-0.5,6.4-1.2,9.7-1.5c4.1-0.3,8.4-0.3,12.5,0.2c1.6,0.2,3.3,0.7,4.9,0.8c1.5,0.2,4.9-2.3,5.1-4
	C544,377.6,540.2,376.2,538.7,375.7z M604.5,327.9c-3.1-0.3-6.4,0-9.4,0.5c-1,0.2-2.1,0.3-3.1,0.5c-2,0.3-4,0.8-6.1,1.3
	c1.6-8.9,3.8-18.6,5.6-26.5c1.3-6.1,0.7-14-1.6-18c-0.7-1.2-4.3-2.1-6.3-1.5c-1.5,0.5-3.8,2.8-4.9,4.8c-1.5,2.5-3.3,6.6-4,8.2
	c-4,12.2-5.9,23.2-8.6,35.9c-0.2,0.5-0.2,1.2-0.3,1.6c-1.2,0.3-2.5,0.5-3.6,0.8c-4.1,0.8-8.2,2.3-12.5,2.8c-1.8,0.2-4.1,1-5.1-0.8
	c-0.7-1.3,0.2-4,0.5-5.3c1-4,2.1-7.9,3.6-11.9c6.4-17,8.4-19.9,10.1-30.3c0.3-2.3,0.3-4.8-0.7-7.1c-0.8-2-2.1-2.3-3.8-2.3
	c-1.8,0-4.3,0.2-5.9,1c-0.5,0.3-1.2,0.7-1.6,1c-1.2,1-2.1,2.1-3.1,3.3c-0.3,0.3-0.7,0.8-0.8,1.3c-2,3.3-4.1,6.4-5.6,9.9
	c-1.5,3.6-3,7.1-4.5,10.9c-2.6,7.1-4.9,14.5-6.8,21.9c-0.3,1.2-0.5,2.3-0.8,3.6c-2,8.4-2.1,16.3,11.4,15.2
	c9.4-0.8,18.6-3.3,27.7-5.9l-1,6.4c-0.3,2.8-2.1,16-2.3,18.8c-0.3,3.5-0.7,7.3-0.5,10.9c0,1.3,0,2.5,0.2,3.8c0.2,0.8,0.3,2.1,1,3
	c1,1.2,3.1,1.5,5.1,1.2c2.3-0.5,3.6-0.7,5.4-2.3c1.5-1.3,2.5-3.6,3.5-5.6c1.3-3,2.3-5.9,3.1-10.1c1.3-6.3,4-22.6,4.9-28.8
	c0.2-0.7,0.3-1.5,0.3-2.3c1.6-0.3,3.3-0.8,4.9-1.2c3.6-0.8,7.3-1.3,10.9-1.5c2.1-0.2,4.5-0.2,6.6-0.2c1.2,0,6.3,1,6.1-1.6
	C612.6,329.2,607.5,328.2,604.5,327.9z"/>
<path class="st2" d="M418.9,366.6c-0.2,0.2-0.3,0.2-0.3,0.3c-6.4,5.8-26.5,19.8-33,6.1c-2.6-5.6-2.3-13-2.3-19.1
	c0-5.1,0.5-10.5,0.8-16c9.2-0.2,22.4-8.6,22.6-29.2c0-13-12.5-13.8-15.8-13.8c-26.5-0.2-32.1,39.7-32.3,57.9v1.8
	c-6.8,12.4-14.2,23.4-21.1,23.6c-3.5,0.2-4.9-5.4-4.9-12.2c0-11.9,4-25.1,5.8-37.6c1.8-12.5,0-20.9-9.7-21.4
	c-23.1-1.2-36.1,30.5-37.3,32.3c0.5-16.6-4.5-26.5-19.8-26.9c-10.7-0.3-21.6,16.3-21.6,16.3v-3.5c0.2-7.1-0.7-23.2-13.8-23.2h-0.2
	c-3.5,0-9.6,3.3-15.2,6.4c-8.2,4.6-25.7,9.6-26.7,8.1c-7.3-10.7-17.1-13.2-23.7-14c-14-1.6-25.2,4-26,11.5c-0.2,2.5,0.8,4.6,1.8,5.9
	c-3.3,2.1-6.1,5.8-8.7,10.4c-3,4.8-5.6,13.8-7.1,18.5c-1.6,4.9-3.5,8.9-6.3,13.8c-3.6,6.8-9.7,17-15.3,19.8c-1.8,0.8-4.9,2-6.4-0.3
	c-1.6-2.6-0.5-10.4,0.5-14.3c1.3-5.3,3.3-14.2,4.6-19.4c1.6-6.6,3-14.7,4-20.6c1.2-8.4,0.5-17.6-7.3-22.1
	c-10.5-6.1-23.6-3.3-32.6,4.3c-5.8,4.8-9.4,10.7-13.7,18.3c-1.3,2.3-4,7.9-4,7.9s2.1-15.3,2.6-19.4c3.5-26,6.6-51.4,12-77.1
	c1.2-5.8,3.1-10.5,3-16.6c-0.2-3.3-0.8-5.4-2.1-6.4c-4.5-4-14.8,5.6-18,10.7c-6.9,11.5-10.2,25.2-13.2,38.2
	C29.6,304.3,22,385.1,21.8,386.7c-0.2,4,0.3,11,6.8,11.5c3.5,0.2,5.4,0.2,10.7-2s8.2-6.8,10.7-12.9c2.8-6.6,6.3-15.7,9.1-23.1
	c2.8-7.4,4.5-12.7,7.7-18.8c2.6-4.9,7.1-10.9,12.9-12.7c2.1-0.7,6.6-1.5,5.8,2.1c-0.3,1.5-5.3,19.3-6.4,24.4
	c-0.8,3.5-1.6,7.6-2.3,11c-3.3,18.5,8.9,36.8,29.5,30.5c9.7-3,17.1-9.6,22.7-17.5c0.8-1.2,1.6-2.5,2.5-3.8
	c5.1,16.6,20.1,22.1,27.5,22.4c12.9,0.7,40.2-8.2,40.4-57c0-3.5-0.5-8.9-0.8-11.7c0,0.3,10.7-1.3,18.6-4c2.1-0.7,4-1.5,5.6-2.3
	c-4.1,19.1-4.9,47-5.3,57.2c-0.3,15.3,3,17.8,8.2,18c2.5,0,5.8-0.5,5.8-0.5c12.2-3.5,12.2-12.2,12.2-12.2
	c0.8-40.9,22.3-61.6,27-61.5c1.5,0,1.8,1.8,2,4.5c0.2,9.1-1.6,18.1-5.9,34.1c-2.3,8.4-3.8,15-3.8,19.1c-0.3,13.5,7.7,14.5,9.2,14.7
	h0.2c7.9,0.2,9.4-7.1,9.4-7.1c17-53.4,32-60.5,32-60.5c-3,13.7-6.3,28-6.6,40.1c-0.3,15.8,5.6,29.8,23.7,29
	c10.7-0.5,21.1-12.4,29.2-24.9c5.4,23.2,20.6,25.4,26.9,25.4c10.9,0,21.4-4.9,28.7-12.9c2.1-2.3,4.3-4.8,6.1-7.3
	c1.5-2,5.1-6.3,5.3-8.7C427.5,364,421.7,364.5,418.9,366.6L418.9,366.6z M387.6,308.9c1-1.8,3.5-3.8,5.3-3.8c1.5,0,2.6,1.2,2.6,4.3
	c-0.2,15-8.7,16.6-10.2,17C386.1,319.9,385.4,313.5,387.6,308.9z M176.9,349.5c-1,17.8-4.9,35.8-12.9,35.4
	c-6.8-0.2-10.1-12.9-10.1-25.4c0-14.8,6.3-33,6.3-33s4.9,1.2,7.4,1.5c2.3,0.3,7.6,0.7,7.6,0.7C176.6,333.8,177.4,340.6,176.9,349.5z
	"/>
</svg>
